# vtk DataFile Version 4.2
Average gate count vs CC and IR offset (surface)
ASCII
DATASET STRUCTURED_GRID
DIMENSIONS 10 10 1
POINTS 100 float
1 0 10.425
2 0 31.281
3 0 64.557
4 0 131.585
5 0 266.513
6 0 538.177
7 0 1084.769
8 0 2185.889
9 0 4402.209
10 0 8864.033
1 13 18.255
2 13 39.102
3 13 72.378
4 13 139.406
5 13 274.334
6 13 545.998
7 13 1092.59
8 13 2193.71
9 13 4410.03
10 13 8871.854
1 30 27.81
2 30 48.666
3 30 81.942
4 30 148.97
5 30 283.898
6 30 555.562
7 30 1102.154
8 30 2203.274
9 30 4419.594
10 30 8881.418
1 86 60.262
2 86 81.118
3 86 114.394
4 86 181.422
5 86 316.35
6 86 588.014
7 86 1134.606
8 86 2235.726
9 86 4452.046
10 86 8913.87
1 190 120.53
2 190 141.386
3 190 174.662
4 190 241.69
5 190 376.618
6 190 648.282
7 190 1194.874
8 190 2295.994
9 190 4512.314
10 190 8974.138
1 340 207.455
2 340 228.311
3 340 261.587
4 340 328.615
5 340 463.543
6 340 735.207
7 340 1281.799
8 340 2382.919
9 340 4599.239
10 340 9061.063
1 590 352.33
2 590 373.186
3 590 406.462
4 590 473.49
5 590 608.418
6 590 880.082
7 590 1426.674
8 590 2527.794
9 590 4744.114
10 590 9205.938
1 890 526.18
2 890 547.036
3 890 580.312
4 890 647.34
5 890 782.268
6 890 1053.932
7 890 1600.524
8 890 2701.644
9 890 4917.964
10 890 9379.788
1 1457.6 815.93
2 1457.6 836.786
3 1457.6 870.062
4 1457.6 937.09
5 1457.6 1072.018
6 1457.6 1343.682
7 1457.6 1890.274
8 1457.6 2991.394
9 1457.6 5207.714
10 1457.6 9669.538
1 2057.6 1163.63
2 2057.6 1184.486
3 2057.6 1217.762
4 2057.6 1284.79
5 2057.6 1419.718
6 2057.6 1691.382
7 2057.6 2237.974
8 2057.6 3339.094
9 2057.6 5555.414
10 2057.6 10017.238
POINT_DATA 100
SCALARS num_gates float 1
LOOKUP_TABLE default
10425
31281
64557
131585
266513
538177
1084769
2185889
4402209
8864033
18255
39102
72378
139406
274334
545998
1092590
2193710
4410030
8871854
27810
48666
81942
148970
283898
555562
1102154
2203274
4419594
8881418
60262
81118
114394
181422
316350
588014
1134606
2235726
4452046
8913870
120530
141386
174662
241690
376618
648282
1194874
2295994
4512314
8974138
207455
228311
261587
328615
463543
735207
1281799
2382919
4599239
9061063
352330
373186
406462
473490
608418
880082
1426674
2527794
4744114
9205938
526180
547036
580312
647340
782268
1053932
1600524
2701644
4917964
9379788
815930
836786
870062
937090
1072018
1343682
1890274
2991394
5207714
9669538
1163630
1184486
1217762
1284790
1419718
1691382
2237974
3339094
5555414
10017238
