# vtk DataFile Version 4.2
Average circuit depth vs CC and IR offset (surface)
ASCII
DATASET STRUCTURED_GRID
DIMENSIONS 10 10 1
POINTS 100 float
1 0 1.306
2 0 16.449
3 0 17.128
4 0 27.242
5 0 55.534
6 0 95.982
7 0 209.102
8 0 370.926
9 0 823.63
10 0 1470.926
1 13 2.02
2 13 17.152
3 13 17.831
4 13 27.945
5 13 56.237
6 13 96.685
7 13 209.805
8 13 371.629
9 13 824.333
10 13 1471.629
1 30 3.316
2 30 18.459
3 30 19.138
4 30 29.252
5 30 57.544
6 30 97.992
7 30 211.112
8 30 372.936
9 30 825.64
10 30 1472.936
1 86 7.068
2 86 22.211
3 86 22.89
4 86 33.004
5 86 61.296
6 86 101.744
7 86 214.864
8 86 376.688
9 86 829.392
10 86 1476.688
1 190 14.036
2 190 29.179
3 190 29.858
4 190 39.972
5 190 68.264
6 190 108.712
7 190 221.832
8 190 383.656
9 190 836.36
10 190 1483.656
1 340 24.086
2 340 39.229
3 340 39.908
4 340 50.022
5 340 78.314
6 340 118.762
7 340 231.882
8 340 393.706
9 340 846.41
10 340 1493.706
1 590 40.836
2 590 55.979
3 590 56.658
4 590 66.772
5 590 95.064
6 590 135.512
7 590 248.632
8 590 410.456
9 590 863.16
10 590 1510.456
1 890 60.936
2 890 76.079
3 890 76.758
4 890 86.872
5 890 115.164
6 890 155.612
7 890 268.732
8 890 430.556
9 890 883.26
10 890 1530.556
1 1457.6 94.436
2 1457.6 109.579
3 1457.6 110.258
4 1457.6 120.372
5 1457.6 148.664
6 1457.6 189.112
7 1457.6 302.232
8 1457.6 464.056
9 1457.6 916.76
10 1457.6 1564.056
1 2057.6 134.636
2 2057.6 149.779
3 2057.6 150.458
4 2057.6 160.572
5 2057.6 188.864
6 2057.6 229.312
7 2057.6 342.432
8 2057.6 504.256
9 2057.6 956.96
10 2057.6 1604.256
POINT_DATA 100
SCALARS depth float 1
LOOKUP_TABLE default
1306
16449
17128
27242
55534
95982
209102
370926
823630
1470926
2020
17152
17831
27945
56237
96685
209805
371629
824333
1471629
3316
18459
19138
29252
57544
97992
211112
372936
825640
1472936
7068
22211
22890
33004
61296
101744
214864
376688
829392
1476688
14036
29179
29858
39972
68264
108712
221832
383656
836360
1483656
24086
39229
39908
50022
78314
118762
231882
393706
846410
1493706
40836
55979
56658
66772
95064
135512
248632
410456
863160
1510456
60936
76079
76758
86872
115164
155612
268732
430556
883260
1530556
94436
109579
110258
120372
148664
189112
302232
464056
916760
1564056
134636
149779
150458
160572
188864
229312
342432
504256
956960
1604256
