# vtk DataFile Version 4.2
Average qubits vs CC and IR offset (surface)
ASCII
DATASET STRUCTURED_GRID
DIMENSIONS 10 10 1
POINTS 100 float
1 0 0.168
2 0 0.29
3 0 0.554
4 0 1.114
5 0 2.298
6 0 4.794
7 0 10.042
8 0 21.05
9 0 44.09
10 0 92.218
1 13 0.252
2 13 0.374
3 13 0.638
4 13 1.198
5 13 2.382
6 13 4.878
7 13 10.126
8 13 21.134
9 13 44.174
10 13 92.302
1 30 0.348
2 30 0.47
3 30 0.734
4 30 1.294
5 30 2.478
6 30 4.974
7 30 10.222
8 30 21.23
9 30 44.27
10 30 92.398
1 86 0.684
2 86 0.806
3 86 1.07
4 86 1.63
5 86 2.814
6 86 5.31
7 86 10.558
8 86 21.566
9 86 44.606
10 86 92.734
1 190 1.308
2 190 1.43
3 190 1.694
4 190 2.254
5 190 3.438
6 190 5.934
7 190 11.182
8 190 22.19
9 190 45.23
10 190 93.358
1 340 2.208
2 340 2.33
3 340 2.594
4 340 3.154
5 340 4.338
6 340 6.834
7 340 12.082
8 340 23.09
9 340 46.13
10 340 94.258
1 590 3.708
2 590 3.83
3 590 4.094
4 590 4.654
5 590 5.838
6 590 8.334
7 590 13.582
8 590 24.59
9 590 47.63
10 590 95.758
1 890 5.508
2 890 5.63
3 890 5.894
4 890 6.454
5 890 7.638
6 890 10.134
7 890 15.382
8 890 26.39
9 890 49.43
10 890 97.558
1 1457.6 8.508
2 1457.6 8.63
3 1457.6 8.894
4 1457.6 9.454
5 1457.6 10.638
6 1457.6 13.134
7 1457.6 18.382
8 1457.6 29.39
9 1457.6 52.43
10 1457.6 100.558
1 2057.6 12.108
2 2057.6 12.23
3 2057.6 12.494
4 2057.6 13.054
5 2057.6 14.238
6 2057.6 16.734
7 2057.6 21.982
8 2057.6 32.99
9 2057.6 56.03
10 2057.6 104.158
POINT_DATA 100
SCALARS num_qubits float 1
LOOKUP_TABLE default
168
290
554
1114
2298
4794
10042
21050
44090
92218
252
374
638
1198
2382
4878
10126
21134
44174
92302
348
470
734
1294
2478
4974
10222
21230
44270
92398
684
806
1070
1630
2814
5310
10558
21566
44606
92734
1308
1430
1694
2254
3438
5934
11182
22190
45230
93358
2208
2330
2594
3154
4338
6834
12082
23090
46130
94258
3708
3830
4094
4654
5838
8334
13582
24590
47630
95758
5508
5630
5894
6454
7638
10134
15382
26390
49430
97558
8508
8630
8894
9454
10638
13134
18382
29390
52430
100558
12108
12230
12494
13054
14238
16734
21982
32990
56030
104158
